<svg width="51" height="38" viewBox="0 0 51 38" fill="none" xmlns="http://www.w3.org/2000/svg">
<path d="M49.5234 12.9023C47.2773 14.6602 44.4453 16.8086 34.4844 24.0352C32.5312 25.5 28.918 28.7227 25.5 28.7227C21.9844 28.7227 18.4688 25.5 16.418 24.0352C6.45703 16.8086 3.625 14.6602 1.37891 12.9023C0.988281 12.6094 0.5 12.9023 0.5 13.3906V33.3125C0.5 35.9492 2.55078 38 5.1875 38H45.8125C48.3516 38 50.5 35.9492 50.5 33.3125V13.3906C50.5 12.9023 49.9141 12.6094 49.5234 12.9023ZM25.5 25.5C27.7461 25.5977 30.9688 22.668 32.6289 21.4961C45.6172 12.1211 46.5938 11.2422 49.5234 8.89844C50.1094 8.50781 50.5 7.82422 50.5 7.04297V5.1875C50.5 2.64844 48.3516 0.5 45.8125 0.5H5.1875C2.55078 0.5 0.5 2.64844 0.5 5.1875V7.04297C0.5 7.82422 0.792969 8.50781 1.37891 8.89844C4.30859 11.2422 5.28516 12.1211 18.2734 21.4961C19.9336 22.668 23.1562 25.5977 25.5 25.5Z" fill="#F27405"/>
</svg>
