<svg width="28" height="29" viewBox="0 0 28 29" fill="none" xmlns="http://www.w3.org/2000/svg">
<path d="M13.8372 11.1784C11.9951 11.1784 10.5215 12.6521 10.5215 14.4327C10.5215 16.2748 11.9951 17.7484 13.8372 17.7484C15.6178 17.7484 17.0915 16.2748 17.0915 14.4327C17.0915 12.6521 15.6178 11.1784 13.8372 11.1784ZM21.451 8.66096C21.144 7.80134 20.4685 7.12592 19.6089 6.81891C18.3195 6.26629 15.2494 6.38909 13.8372 6.38909C12.3635 6.38909 9.29343 6.26629 8.00399 6.81891C7.14437 7.12592 6.46895 7.80134 6.16194 8.66096C5.67072 9.9504 5.73213 13.0205 5.73213 14.4327C5.73213 15.9064 5.67072 18.9765 6.16194 20.2659C6.46895 21.1255 7.14437 21.8009 8.00399 22.1079C9.29343 22.6606 12.3635 22.5378 13.8372 22.5378C15.2494 22.5378 18.3195 22.6606 19.6089 22.1079C20.4685 21.8009 21.144 21.1255 21.451 20.2659C22.0036 18.9765 21.8808 15.9064 21.8808 14.4327C21.8808 13.0205 22.0036 9.9504 21.451 8.66096ZM13.8372 19.4677C11.0127 19.4677 8.80221 17.2572 8.80221 14.4327C8.80221 11.6696 11.0127 9.39778 13.8372 9.39778C16.6002 9.39778 18.8721 11.6696 18.8721 14.4327V14.4941C18.8721 17.2572 16.6002 19.5291 13.8372 19.5291V19.4677ZM19.0563 10.3802C18.3809 10.3802 17.8897 9.889 17.8897 9.21358C17.8897 8.53816 18.3809 8.04694 19.0563 8.04694C19.6703 8.04694 20.2229 8.53816 20.2229 9.21358C20.2229 9.889 19.6703 10.3802 19.0563 10.3802ZM24.6439 0.678731H3.03045C1.3726 0.678731 0.0831642 2.02957 0.0831642 3.62602V25.2394C0.0831642 26.8973 1.3726 28.1867 3.03045 28.1867H24.6439C26.2403 28.1867 27.5912 26.8973 27.5912 25.2394V3.62602C27.5912 2.02957 26.2403 0.678731 24.6439 0.678731ZM23.5386 18.4852C23.4772 20.0817 23.1088 21.4939 22.0036 22.5992C20.837 23.7658 19.4247 24.1342 17.8897 24.1956C16.2318 24.3184 11.3811 24.3184 9.78464 24.1956C8.1882 24.1342 6.77596 23.7658 5.67072 22.5992C4.50409 21.4939 4.13568 20.0817 4.07428 18.4852C3.95147 16.8888 3.95147 12.0381 4.07428 10.3802C4.13568 8.84517 4.50409 7.43292 5.67072 6.26629C6.77596 5.16106 8.1882 4.79265 9.78464 4.73125C11.3811 4.60844 16.2318 4.60844 17.8897 4.73125C19.4247 4.79265 20.837 5.16106 22.0036 6.32769C23.1088 7.43292 23.4772 8.84517 23.5386 10.4416C23.6614 12.0381 23.6614 16.8888 23.5386 18.4852Z" fill="#F27405"/>
</svg>
