<svg width="28" height="29" viewBox="0 0 28 29" fill="none" xmlns="http://www.w3.org/2000/svg">
<path d="M25.6263 0.678731H1.98662C0.942789 0.678731 0.0831642 1.59976 0.0831642 2.70499V26.2219C0.0831642 27.3271 0.942789 28.1867 1.98662 28.1867H25.6263C26.6701 28.1867 27.5912 27.3271 27.5912 26.2219V2.70499C27.5912 1.59976 26.6701 0.678731 25.6263 0.678731ZM8.3724 24.257H4.31989V11.1784H8.3724V24.257ZM6.34614 9.33638C4.9953 9.33638 3.95147 8.29255 3.95147 7.00311C3.95147 5.71368 4.9953 4.60844 6.34614 4.60844C7.63558 4.60844 8.67941 5.71368 8.67941 7.00311C8.67941 8.29255 7.63558 9.33638 6.34614 9.33638ZM23.6614 24.257H19.5475V17.8712C19.5475 16.3976 19.5475 14.4327 17.4599 14.4327C15.3108 14.4327 15.0038 16.0906 15.0038 17.8098V24.257H10.9513V11.1784H14.8196V12.9591H14.881C15.4336 11.9153 16.7844 10.81 18.7493 10.81C22.8632 10.81 23.6614 13.5731 23.6614 17.073V24.257Z" fill="#F27405"/>
</svg>
