<svg width="65" height="66" viewBox="0 0 65 66" fill="none" xmlns="http://www.w3.org/2000/svg">
<path d="M29.6491 1.13793C13.274 1.13793 0 14.129 0 30.1552C0 46.1814 13.274 59.1724 29.6491 59.1724C46.0243 59.1724 59.2982 46.1814 59.2982 30.1552C59.2982 14.129 46.0243 1.13793 29.6491 1.13793ZM29.6491 51.6841C17.4918 51.6841 7.65139 42.0558 7.65139 30.1552C7.65139 18.2569 17.4894 8.62625 29.6491 8.62625C41.8065 8.62625 51.6469 18.2546 51.6469 30.1552C51.6469 42.0534 41.8088 51.6841 29.6491 51.6841ZM29.6491 15.1785C21.1979 15.1785 14.3463 21.8841 14.3463 30.1552C14.3463 38.4263 21.1979 45.1318 29.6491 45.1318C38.1003 45.1318 44.9519 38.4263 44.9519 30.1552C44.9519 21.8841 38.1003 15.1785 29.6491 15.1785ZM29.6491 37.6435C25.4301 37.6435 21.9977 34.2843 21.9977 30.1552C21.9977 26.0261 25.4301 22.6669 29.6491 22.6669C33.8681 22.6669 37.3005 26.0261 37.3005 30.1552C37.3005 34.2843 33.8681 37.6435 29.6491 37.6435Z" fill="#E97B1A"/>
</svg>
