<svg width="28" height="41" viewBox="0 0 28 41" fill="none" xmlns="http://www.w3.org/2000/svg">
<path d="M7.75 35.5469C7.75 36.0156 7.82812 36.4844 8.14062 36.9531L9.46875 38.9062C9.9375 39.6094 10.7188 40.0781 11.5781 40.0781H16.3438C17.2031 40.0781 17.9844 39.6094 18.4531 38.9062L19.7812 36.9531C20.0156 36.4844 20.1719 36.0156 20.1719 35.5469V32.5H7.75V35.5469ZM0.25 13.75C0.25 17.2656 1.5 20.3906 3.60938 22.8125C4.9375 24.2969 6.89062 27.4219 7.67188 30C7.67188 30 7.67188 30 7.67188 30.0781H20.25C20.25 30 20.25 30 20.25 30C21.0312 27.4219 22.9844 24.2969 24.3125 22.8125C26.4219 20.3906 27.75 17.2656 27.75 13.75C27.75 6.17188 21.5 0 13.9219 0C5.95312 0.078125 0.25 6.48438 0.25 13.75ZM14 7.5C10.4844 7.5 7.75 10.3125 7.75 13.75C7.75 14.4531 7.125 15 6.5 15C5.79688 15 5.25 14.4531 5.25 13.75C5.25 8.98438 9.15625 5 14 5C14.625 5 15.25 5.625 15.25 6.25C15.25 6.95312 14.625 7.5 14 7.5Z" fill="black"/>
</svg>
