<svg width="28" height="29" viewBox="0 0 28 29" fill="none" xmlns="http://www.w3.org/2000/svg">
<path d="M24.6439 0.678731H3.03045C1.3726 0.678731 0.0831642 2.02957 0.0831642 3.62602V25.2394C0.0831642 26.8973 1.3726 28.1867 3.03045 28.1867H24.6439C26.2403 28.1867 27.5912 26.8973 27.5912 25.2394V3.62602C27.5912 2.02957 26.2403 0.678731 24.6439 0.678731ZM21.6352 10.4416C21.6352 10.6258 21.6352 10.81 21.6352 10.9942C21.6352 16.2748 17.5827 22.415 10.1531 22.415C7.88119 22.415 5.79353 21.8009 4.01288 20.6343C4.31989 20.6957 4.62689 20.6957 4.9339 20.6957C6.83736 20.6957 8.55661 20.0203 9.96885 18.9765C8.1882 18.9151 6.71455 17.7484 6.16194 16.152C6.83736 16.2748 7.38997 16.2748 8.00399 16.0906C6.16194 15.7222 4.8111 14.1257 4.8111 12.1609V12.0995C5.30231 12.4065 5.91633 12.5907 6.59175 12.5907C5.48652 11.8539 4.8111 10.6258 4.8111 9.27498C4.8111 8.47675 4.9953 7.80134 5.36372 7.18732C7.32857 9.64339 10.3373 11.2398 13.653 11.424C13.1003 8.72236 15.1266 6.4505 17.5827 6.4505C18.7493 6.4505 19.7931 6.94171 20.5299 7.73993C21.451 7.55573 22.3106 7.24872 23.1088 6.75751C22.8018 7.73993 22.1264 8.47675 21.3282 8.96797C22.1264 8.90657 22.9246 8.66096 23.6614 8.35395C23.1088 9.15217 22.372 9.889 21.6352 10.4416Z" fill="#F27405"/>
</svg>
