<svg width="58" height="52" viewBox="0 0 58 52" fill="none" xmlns="http://www.w3.org/2000/svg">
<path d="M48.8872 0L58 16.25H47.8198L40.8517 0H48.8872ZM35.9983 0L42.9663 16.25H15.0337L22.0017 0H35.9983ZM9.11285 0H17.1483L10.1802 16.25H0L9.11285 0ZM0 19.5H10.1399L22.5253 45.0633C22.6764 45.3781 22.2535 45.6625 22.0219 45.3984L0 19.5ZM14.9229 19.5H43.0771L29.2819 51.8172C29.1812 52.0609 28.8288 52.0609 28.7281 51.8172L14.9229 19.5ZM35.4747 45.0633L47.8601 19.5H58L35.9781 45.3883C35.7465 45.6625 35.3236 45.3781 35.4747 45.0633Z" fill="#E97B1A"/>
</svg>
