<svg width="68" height="46" viewBox="0 0 68 46" fill="none" xmlns="http://www.w3.org/2000/svg">
<path d="M0.410652 21.1355C6.81281 8.52928 19.4873 0 33.9998 0C48.5124 0 61.1904 8.53524 67.589 21.1367C67.859 21.6759 67.9998 22.2715 67.9998 22.8756C67.9998 23.4797 67.859 24.0753 67.589 24.6145C61.1868 37.2207 48.5124 45.75 33.9998 45.75C19.4873 45.75 6.80927 37.2148 0.410652 24.6133C0.140594 24.0741 -0.000114441 23.4785 -0.000114441 22.8744C-0.000114441 22.2703 0.140594 21.6747 0.410652 21.1355ZM33.9998 40.0312C37.3621 40.0312 40.6489 39.0251 43.4445 37.1399C46.2402 35.2547 48.4191 32.5753 49.7058 29.4404C50.9925 26.3055 51.3291 22.856 50.6732 19.528C50.0172 16.2 48.3981 13.143 46.0206 10.7437C43.6431 8.34435 40.614 6.71038 37.3164 6.0484C34.0187 5.38643 30.6005 5.72618 27.4942 7.02469C24.3879 8.32321 21.7328 10.5222 19.8648 13.3435C17.9969 16.1648 16.9998 19.4818 16.9998 22.875C16.9987 25.1283 17.4377 27.3597 18.2917 29.4417C19.1456 31.5237 20.3978 33.4154 21.9766 35.0087C23.5554 36.6021 25.4299 37.8657 27.4929 38.7275C29.5559 39.5893 31.767 40.0323 33.9998 40.0312ZM33.9998 11.4375C35.0114 11.4518 36.0165 11.6036 36.9878 11.889C36.1871 12.9871 35.8029 14.3384 35.9048 15.6979C36.0067 17.0574 36.588 18.335 37.5433 19.299C38.4985 20.263 39.7645 20.8497 41.1116 20.9525C42.4586 21.0553 43.7976 20.6676 44.8857 19.8596C45.5053 22.1632 45.3935 24.605 44.5659 26.8412C43.7384 29.0774 42.2368 30.9954 40.2726 32.3252C38.3083 33.655 35.9803 34.3297 33.6162 34.2544C31.2521 34.179 28.9709 33.3573 27.0937 31.905C25.2166 30.4527 23.8379 28.4429 23.1519 26.1585C22.4659 23.8741 22.507 21.43 23.2694 19.1704C24.0318 16.9108 25.4772 14.9493 27.4021 13.5621C29.327 12.175 31.6345 11.4319 33.9998 11.4375Z" fill="#E97B1A"/>
</svg>
