<svg width="28" height="36" viewBox="0 0 28 36" fill="none" xmlns="http://www.w3.org/2000/svg">
<path d="M14.0035 0H13.9965C6.27725 0 0 8.073 0 18C0 21.9375 0.987 25.587 2.66525 28.5502L0.9205 35.2373L6.30175 33.0255C8.5155 34.911 11.1562 36 14.0035 36C21.7227 36 28 27.9248 28 18C28 8.07525 21.7227 0 14.0035 0Z" fill="#F27405"/>
<path d="M22.1497 25.4182C21.8119 26.6445 20.4714 27.6615 19.4022 27.9585C18.6707 28.1587 17.7152 28.3185 14.4987 26.604C10.3845 24.4125 7.73497 19.0372 7.52847 18.6885C7.33072 18.3397 5.86597 15.8422 5.86597 13.2592C5.86597 10.6762 6.88622 9.41848 7.29747 8.87848C7.63522 8.43523 8.19347 8.23273 8.72897 8.23273C8.90222 8.23273 9.05797 8.24398 9.19797 8.25298C9.60922 8.27548 9.81572 8.30698 10.087 9.14173C10.4247 10.188 11.2472 12.771 11.3452 13.0365C11.445 13.302 11.5447 13.662 11.4047 14.0107C11.2735 14.3707 11.158 14.5305 10.9515 14.8365C10.745 15.1425 10.549 15.3765 10.3425 15.705C10.1535 15.9907 9.93997 16.2967 10.178 16.8255C10.416 17.343 11.2385 19.0687 12.4495 20.4547C14.0122 22.2435 15.2792 22.815 15.7324 23.058C16.0702 23.238 16.4727 23.1952 16.7194 22.8577C17.0327 22.4235 17.4194 21.7035 17.8132 20.9947C18.0932 20.4862 18.4467 20.4232 18.8177 20.6032C19.1957 20.772 21.1959 22.0432 21.6072 22.3065C22.0184 22.572 22.2897 22.698 22.3894 22.9207C22.4874 23.1435 22.4874 24.1897 22.1497 25.4182Z" fill="#FAFAFA"/>
</svg>
