<svg width="33" height="37" viewBox="0 0 33 37" fill="none" xmlns="http://www.w3.org/2000/svg">
<path d="M0.75 33.125C0.75 35.0234 2.22656 36.5 4.125 36.5H28.875C30.7031 36.5 32.25 35.0234 32.25 33.125V14H0.75V33.125ZM5.25 19.625C5.25 19.0625 5.74219 18.5 6.375 18.5H26.625C27.1875 18.5 27.75 19.0625 27.75 19.625V24.125C27.75 24.7578 27.1875 25.25 26.625 25.25H6.375C5.74219 25.25 5.25 24.7578 5.25 24.125V19.625ZM28.875 5H25.5V1.625C25.5 1.0625 24.9375 0.5 24.375 0.5H22.125C21.4922 0.5 21 1.0625 21 1.625V5H12V1.625C12 1.0625 11.4375 0.5 10.875 0.5H8.625C7.99219 0.5 7.5 1.0625 7.5 1.625V5H4.125C2.22656 5 0.75 6.54688 0.75 8.375V11.75H32.25V8.375C32.25 6.54688 30.7031 5 28.875 5Z" fill="black"/>
</svg>
