<svg width="29" height="29" viewBox="0 0 29 29" fill="none" xmlns="http://www.w3.org/2000/svg">
<path d="M25.8929 0.0625H3.10714C1.39109 0.0625 0 1.4476 0 3.15625V25.8438C0 27.5524 1.39109 28.9375 3.10714 28.9375H25.8929C27.6089 28.9375 29 27.5524 29 25.8438V3.15625C29 1.4476 27.6089 0.0625 25.8929 0.0625ZM6.08482 24.8125C5.62956 24.8125 5.23961 24.4984 5.1387 24.0631L4.16784 19.8736C4.11665 19.6528 4.14504 19.421 4.24807 19.2188C4.35109 19.0166 4.52219 18.8569 4.73147 18.7676L9.26259 16.8341C9.45615 16.7515 9.67142 16.7338 9.87596 16.7837C10.0805 16.8335 10.2632 16.9483 10.3966 17.1105L12.4031 19.5524C15.5713 18.0723 18.1187 15.501 19.5742 12.4122L17.1217 10.4144C16.9587 10.2816 16.8435 10.0997 16.7935 9.89602C16.7434 9.69236 16.7611 9.47802 16.8441 9.28529L18.786 4.7737C18.8757 4.56533 19.0361 4.39496 19.2392 4.29238C19.4422 4.1898 19.675 4.16153 19.8968 4.21251L24.1044 5.17918C24.3184 5.22829 24.5093 5.34816 24.646 5.51924C24.7827 5.69031 24.8571 5.90247 24.8571 6.12109C24.8571 16.4524 16.4455 24.8125 6.08482 24.8125Z" fill="#FBFBFB"/>
</svg>
